{"title":"Unleashed 2017 Movies HDRip XviD AAC New Source with Sample ☻rDX","magnet":"magnet:?xt=urn:btih:7196828662afffdfec06623a482c2e25dab31a60&dn=Unleashed+2017+Movies+HDRip+XviD+AAC+New+Source+with+Sample+%E2%98%BBrDX&tr=udp%3A%2F%2Ftracker.leechers-paradise.org%3A6969&tr=udp%3A%2F%2Fzer0day.ch%3A1337&tr=udp%3A%2F%2Fopen.demonii.com%3A1337&tr=udp%3A%2F%2Ftracker.coppersurfer.tk%3A6969&tr=udp%3A%2F%2Fexodus.desync.com%3A6969","uploader":"basicssom","categoryP":"video","categoryS":"movies","size":"739601527","seeders":"0","leechers":"128","description":"----------------------------------------------------------------\r\nUnleashed 2017 Movies HDRip XviD AAC New Source with Sample &#x263B;rDX&#x263B;\r\n\r\nSCREEN SHOTS &amp; POSTER:\r\n   <a href=\"\nhttp://postimage.co.nr/2017/8/fixed/index.html\" rel=\"nofollow\" target=\"_NEW\">\nhttp://postimage.co.nr/2017/8/fixed/index.html</a>  <a href=\"\nhttp://postimage.co.nr/2017/8/fixed/1.html\" rel=\"nofollow\" target=\"_NEW\">\nhttp://postimage.co.nr/2017/8/fixed/1.html</a>   <a href=\"\nhttp://postimage.co.nr/2017/8/fixed/2.html\" rel=\"nofollow\" target=\"_NEW\">\nhttp://postimage.co.nr/2017/8/fixed/2.html</a>   <a href=\"\nhttp://postimage.co.nr/2017/8/fixed/3.html\" rel=\"nofollow\" target=\"_NEW\">\nhttp://postimage.co.nr/2017/8/fixed/3.html</a>   <a href=\"\nhttp://postimage.co.nr/2017/8/fixed/4.html\" rel=\"nofollow\" target=\"_NEW\">\nhttp://postimage.co.nr/2017/8/fixed/4.html</a>   <a href=\"\nhttp://postimage.co.nr/2017/8/fixed/5.html\" rel=\"nofollow\" target=\"_NEW\">\nhttp://postimage.co.nr/2017/8/fixed/5.html</a>   <a href=\"\nhttp://postimage.co.nr/2017/8/fixed/6.html\" rel=\"nofollow\" target=\"_NEW\">\nhttp://postimage.co.nr/2017/8/fixed/6.html</a>   <a href=\"\nhttp://postimage.co.nr/2017/8/fixed/7.html\" rel=\"nofollow\" target=\"_NEW\">\nhttp://postimage.co.nr/2017/8/fixed/7.html</a>   <a href=\"\nhttp://postimage.co.nr/2017/8/fixed/8.html\" rel=\"nofollow\" target=\"_NEW\">\nhttp://postimage.co.nr/2017/8/fixed/8.html</a>   <a href=\"\nhttp://postimage.co.nr/2017/8/fixed/9.html\" rel=\"nofollow\" target=\"_NEW\">\nhttp://postimage.co.nr/2017/8/fixed/9.html</a>   <a href=\"\nhttp://postimage.co.nr/2017/8/fixed/10.html\" rel=\"nofollow\" target=\"_NEW\">\nhttp://postimage.co.nr/2017/8/fixed/10.html</a>\r\n\r\nFile size                                : 698 MiB\r\nDuration                                 : 1 h 33 min\r\nOverall bit rate mode                    : Constant\r\nOverall bit rate                         : 1 039 kb/s\r\nMovie name                               : Unleashed 2017 Movies HDRip XviD AAC New Source &#x263B;rDX&#x263B;\r\n\r\nVideo\r\nID                                       : 2\r\nFormat                                   : AVC\r\nFormat/Info                              : Advanced Video Codec\r\nFormat profile                           : <a href=\"/cdn-cgi/l/email-protection\" class=\"__cf_email__\" data-cfemail=\"e9a4888087a9a5da\">[email&#xA0;protected]</a>\r\nFormat settings, CABAC                   : Yes\r\nFormat settings, ReFrames                : 2 frames\r\nFormat settings, GOP                     : M=1, N=12\r\nCodec ID                                 : V_MPEG4/ISO/AVC\r\nDuration                                 : 1 h 33 min\r\nBit rate mode                            : Constant\r\nBit rate                                 : 656 kb/s\r\nWidth                                    : 720 pixels\r\nHeight                                   : 400 pixels\r\nDisplay aspect ratio                     : 16:9\r\nFrame rate mode                          : Constant\r\nFrame rate                               : 23.976 FPS\r\nColor space                              : YUV\r\nChroma subsampling                       : 4:2:0\r\nBit depth                                : 8 bits\r\nScan type                                : Progressive\r\nBits/(Pixel*Frame)                       : 0.095\r\nStream size                              : 426 MiB (61%)\r\nTitle                                    : &#x263B;rDX&#x263B;\r\nDefault                                  : Yes\r\nForced                                   : No\r\n\r\nAudio\r\nID                                       : 1\r\nFormat                                   : AC-3\r\nFormat/Info                              : Audio Coding 3\r\nMode extension                           : CM (complete main)\r\nFormat settings, Endianness              : Big\r\nCodec ID                                 : A_AC3\r\nDuration                                 : 1 h 33 min\r\nBit rate mode                            : Constant\r\nBit rate                                 : 384 kb/s\r\nChannel(s)                               : 6 channels\r\nChannel positions                        : Front: L C R, Side: L R, LFE\r\nSampling rate                            : 48.0 kHz\r\nFrame rate                               : 31.250 FPS (1536 spf)\r\nBit depth                                : 16 bits\r\nCompression mode                         : Lossy\r\nStream size                              : 258 MiB (37%)\r\nTitle                                    : &#x263B;rDX&#x263B;\r\nDefault                                  : Yes\r\nForced                                   : No","last_updated":"2017-08-26T12:04:36.627Z","parsed":{"xt":"urn:btih:7196828662afffdfec06623a482c2e25dab31a60","dn":"Unleashed 2017 Movies HDRip XviD AAC New Source with Sample ☻rDX","tr":["udp://exodus.desync.com:6969","udp://open.demonii.com:1337","udp://tracker.coppersurfer.tk:6969","udp://tracker.leechers-paradise.org:6969","udp://zer0day.ch:1337"],"infoHash":"7196828662afffdfec06623a482c2e25dab31a60","infoHashBuffer":{"type":"Buffer","data":[113,150,130,134,98,175,255,223,236,6,98,58,72,44,46,37,218,179,26,96]},"name":"Unleashed 2017 Movies HDRip XviD AAC New Source with Sample ☻rDX","announce":["udp://exodus.desync.com:6969","udp://open.demonii.com:1337","udp://tracker.coppersurfer.tk:6969","udp://tracker.leechers-paradise.org:6969","udp://zer0day.ch:1337"],"urlList":[]}}